# xmcd CD database file
#
# Track frame offsets:
#	150
#	4160
#	21335
#	35405
#	46665
#	65199
#	84201
#	98416
#	113919
#	129906
#	150304
#	165532
#	180072
#	198450
#
# Disc length: 2880 seconds
#
# Revision: 0
# Processed by: cddbd v1.4PL0 Copyright (c) Steve Scherf et al.
# Submitted via: CDex 1.40Release
#
DISCID=9a0b3e0e
DTITLE=Bloosers - Bloosers 1
DYEAR=2001
DGENRE=Blues
TTITLE0=Baloogie
TTITLE1=I Got A Feeling
TTITLE2=It's Too Late Brother
TTITLE3=Case Closed
TTITLE4=Bad Bad Whisky
TTITLE5=Sick and Tired
TTITLE6=I Got Eyes
TTITLE7=Don't Want No Woman
TTITLE8=Big Legs
TTITLE9=Watch Yourself
TTITLE10=I'm Gonna Love You
TTITLE11=Too Late
TTITLE12=Trust My Baby
TTITLE13=This Harp In My Hand
EXTD=YEAR: 2001 ID3G: 0
EXTT0=
EXTT1=
EXTT2=
EXTT3=
EXTT4=
EXTT5=
EXTT6=
EXTT7=
EXTT8=
EXTT9=
EXTT10=
EXTT11=
EXTT12=
EXTT13=
PLAYORDER=
